<svg width="50" height="51" viewBox="0 0 50 51" fill="none" xmlns="http://www.w3.org/2000/svg">
    <path d="M25.166 42.575c-2.645 0-5.1-.447-7.299-1.329-2.197-.885-4.131-2.129-5.75-3.698-1.624-1.582-2.896-3.49-3.785-5.678C7.45 29.695 7 27.312 7 24.79c0-2.527.45-4.908 1.332-7.084.889-2.186 2.16-4.096 3.785-5.677 1.619-1.569 3.553-2.814 5.75-3.697C20.066 7.447 22.521 7 25.166 7c2.157 0 4.198.31 6.075.921 1.876.609 3.589 1.47 5.087 2.56a16.064 16.064 0 0 1 3.865 4.006 16.999 16.999 0 0 1 2.337 5.146l.47 1.75h-7.082l-.328-.922c-.747-2.087-2-3.699-3.82-4.926-1.818-1.225-4.04-1.847-6.604-1.847-1.658 0-3.187.284-4.548.843-1.35.555-2.523 1.33-3.48 2.307-.96.978-1.72 2.154-2.256 3.486-.541 1.342-.811 2.844-.811 4.465s.27 3.122.81 4.462a10.536 10.536 0 0 0 2.257 3.488c.955.973 2.125 1.749 3.48 2.305 1.36.56 2.89.844 4.548.844 2.564 0 4.785-.621 6.603-1.846 1.826-1.228 3.074-2.839 3.821-4.929l.328-.921H43l-.47 1.75a17.004 17.004 0 0 1-2.337 5.149 16.068 16.068 0 0 1-3.863 4.003c-1.5 1.091-3.213 1.952-5.089 2.562-1.875.61-3.918.92-6.075.92z" fill="#ADA4AE"/>
    <path fill-rule="evenodd" clip-rule="evenodd" d="M30.924 23.16c0 .523-.113 1.031-.275 1.529-.252.765-.651 1.45-1.14 2.085-.608.784-1.324 1.45-2.105 2.055-.662.517-1.36.978-2.085 1.401a.659.659 0 0 1-.73-.013 22.133 22.133 0 0 1-2.293-1.63 12.323 12.323 0 0 1-1.705-1.656c-.5-.6-.926-1.245-1.206-1.978a4.42 4.42 0 0 1-.292-1.24 4.03 4.03 0 0 1-.013-.613c.024-.342.104-.68.244-1 .463-1.052 1.252-1.723 2.373-1.966.942-.203 1.79.023 2.498.69.226.216.41.467.561.742.016.027.029.056.046.082.083.137.253.15.353.022.031-.04.056-.083.082-.126.333-.519.767-.928 1.33-1.187.29-.138.598-.225.917-.256a3.114 3.114 0 0 1 2.288.65 2.92 2.92 0 0 1 1.093 1.764c.044.21.066.426.06.645z" fill="#FF8D6D"/>
</svg>
