<svg width="22" height="20" viewBox="0 0 22 20" fill="none" xmlns="http://www.w3.org/2000/svg">
<path d="M6.39263 0C4.11623 0 2.49467 1.03084 1.46561 2.46777C0.436555 3.90471 0 5.74775 0 7.43459C0 10.1835 1.20056 12.6513 3.14953 14.7599C5.0985 16.8684 7.82706 18.6333 10.8986 19.9766C10.961 20.0078 11.039 20.0078 11.1013 19.9766C16.1375 17.7743 20.2225 14.4787 21.5478 10.3241C21.5946 10.1835 21.5167 10.0429 21.3763 10.0117C21.3607 10.0117 21.3295 9.99609 21.314 9.99609H15.2643L13.7987 6.55994C13.7364 6.43499 13.5804 6.3725 13.4557 6.43498C13.3933 6.46622 13.3466 6.51308 13.331 6.57555L11.039 13.2292L8.96527 5.81022C8.93409 5.66965 8.77817 5.59156 8.65344 5.63842C8.57548 5.65404 8.5131 5.71651 8.48191 5.79461L7.00069 9.98048H0.951095C0.701626 9.15268 0.530105 8.30925 0.530105 7.41898C0.530105 5.82585 0.966683 4.07653 1.90219 2.74892C2.85329 1.42132 4.28774 0.499797 6.40822 0.499797C8.07654 0.499797 9.76044 1.20264 10.8051 2.70206C10.8831 2.81139 11.0546 2.84263 11.1637 2.76454C11.1793 2.74892 11.2105 2.7333 11.2261 2.70206C12.2707 1.21826 13.9702 0.499797 15.623 0.499797C17.7434 0.499797 19.1935 1.42132 20.129 2.74892C21.0801 4.07653 21.5011 5.82585 21.5011 7.41898C21.5011 7.84069 21.4699 8.24678 21.4075 8.66849C21.3763 8.80906 21.4543 8.94963 21.5946 8.98087C21.7349 9.0121 21.8753 8.934 21.9065 8.79343C21.9065 8.77781 21.9065 8.7622 21.9065 8.74658C21.9688 8.30925 22 7.87192 22 7.43459C22 5.74775 21.5478 3.90471 20.5344 2.46777C19.5053 1.03084 17.8838 0 15.6074 0C13.8923 0 12.1616 0.718469 10.9922 2.18665C9.85401 0.718469 8.10773 0 6.39263 0ZM20.9398 10.5115C19.5677 14.26 15.7789 17.3526 11.0078 19.4611C8.01417 18.1335 5.39475 16.4311 3.52374 14.4162C2.41672 13.2292 1.62154 11.9016 1.10701 10.5115H7.15661C7.26575 10.5115 7.35931 10.4334 7.39049 10.3397L8.65344 6.74736L10.7427 14.1819C10.7739 14.3225 10.9298 14.4006 11.0546 14.3538C11.1325 14.3382 11.1949 14.2757 11.2261 14.1976L13.5648 7.37211L14.8434 10.3553C14.8746 10.449 14.9681 10.5115 15.0772 10.5115" fill="#162242"/>
<path d="M20.9402 10.5205C19.5681 14.269 15.7793 17.3616 11.0082 19.4701C8.01458 18.1425 5.39516 16.4401 3.52415 14.4252C2.41713 13.2382 1.62195 11.9106 1.10742 10.5205H7.15702C7.26616 10.5205 7.35971 10.4424 7.3909 10.3487L8.65385 6.75635L10.7431 14.1909C10.7743 14.3315 10.9302 14.4096 11.055 14.3628C11.1329 14.3471 11.1953 14.2847 11.2265 14.2066L13.5653 7.3811L14.8438 10.3643C14.875 10.458 14.9685 10.5205 15.0777 10.5205" fill="#41B5C2"/>
</svg>
