<svg width="34" height="34" viewBox="0 0 34 34" fill="none" xmlns="http://www.w3.org/2000/svg">
<path d="M33.1678 11.5871C35.3869 18.4277 32.8904 26.1059 27.0653 30.2941C21.2402 34.6218 13.3347 34.6218 7.50954 30.2941C1.68441 25.9663 -0.812074 18.4277 1.40702 11.5871C3.62612 4.74654 10.006 0 17.2181 0C24.5688 0 30.9487 4.74654 33.1678 11.5871ZM17.3568 1.53564C10.8382 1.53564 5.01305 5.72376 2.93265 12.0059C0.852246 18.2881 3.07134 25.1287 8.48039 29.0376C13.7507 32.9465 20.9628 32.9465 26.2332 29.0376C31.5035 25.1287 33.7226 18.2881 31.7809 12.0059C29.7005 5.72376 23.8754 1.53564 17.3568 1.53564Z" fill="#7E7E7E"/>
<path fill-rule="evenodd" clip-rule="evenodd" d="M21.5175 10.4703H13.0573C11.9477 10.4703 11.1155 11.3079 11.1155 12.4247V20.9406C11.1155 22.0574 11.9477 22.895 13.0573 22.895H21.5175C22.6271 22.895 23.4593 22.0574 23.4593 20.9406V12.4247C23.4593 11.4475 22.6271 10.4703 21.5175 10.4703ZM19.9919 12.2851C19.9919 12.1455 20.1306 12.0059 20.2693 12.0059H21.7949C21.9336 12.0059 22.0723 12.1455 22.0723 12.2851V13.8208C22.0723 13.9604 21.9336 14.1 21.7949 14.1H20.2693C20.1306 14.1 19.9919 13.9604 19.9919 13.8208V12.2851ZM14.999 15.9148C15.415 14.9376 16.2472 14.3792 17.2181 14.3792C18.1889 14.3792 19.1598 15.0772 19.4371 15.9148C19.5758 16.194 19.5758 16.4732 19.5758 16.7525C19.5758 18.1485 18.4663 19.2653 17.0794 19.2653C15.6924 19.2653 14.5829 18.1485 14.5829 16.7525C14.8603 16.4732 14.8603 16.194 14.999 15.9148ZM22.211 21.0802C22.211 21.3594 21.9336 21.7782 21.5175 21.7782H13.0573C12.7799 21.7782 12.5025 21.499 12.5025 21.0802V15.9148H13.7507C13.612 16.194 13.612 16.4732 13.612 16.7525C13.612 18.8465 15.2763 20.5218 17.3567 20.5218C19.4371 20.5218 21.1015 18.8465 21.1015 16.7525C21.1015 16.4732 21.1015 16.194 20.9628 15.9148H22.211V21.0802Z" fill="#7E7E7E"/>
</svg>
