<svg width="29" height="24" viewBox="0 0 29 24" fill="none" xmlns="http://www.w3.org/2000/svg">
<path d="M7.23885 17.9402C7.06996 18.3363 6.90106 18.6759 7.06996 18.9022C7.23885 19.1286 7.49219 19.1003 8.02702 19.072H20.694C20.9755 19.072 21.5667 19.1286 21.6792 18.9022C21.82 18.5627 21.6229 18.308 21.4541 17.9685L20.6659 15.8181H7.99887L7.23885 17.9402Z" fill="#FEC465"/>
<path d="M11.1667 19.8893L11.1666 19.8893L11.1675 19.8945C11.4277 21.4042 12.784 22.4887 14.336 22.4887C15.9152 22.4887 17.2417 21.4054 17.5036 19.8726L17.5335 19.7572H21.5616C21.8221 19.7572 22.0812 19.6318 22.2436 19.4119C22.4084 19.1887 22.4405 18.9024 22.3426 18.6498L21.1883 15.6723V11.0361C21.1883 8.35962 19.5234 5.95976 16.9613 4.92313L16.8695 4.87873V4.01984C16.8695 2.69637 15.8505 1.59638 14.5378 1.51173L14.5378 1.51147H14.5298H14.5295H14.5291H14.5288H14.5285H14.5282H14.5278H14.5275H14.5272H14.5269H14.5265H14.5262H14.5259H14.5256H14.5252H14.5249H14.5246H14.5243H14.5239H14.5236H14.5233H14.523H14.5226H14.5223H14.522H14.5217H14.5214H14.521H14.5207H14.5204H14.5201H14.5197H14.5194H14.5191H14.5188H14.5184H14.5181H14.5178H14.5175H14.5171H14.5168H14.5165H14.5162H14.5158H14.5155H14.5152H14.5149H14.5145H14.5142H14.5139H14.5136H14.5132H14.5129H14.5126H14.5123H14.5119H14.5116H14.5113H14.511H14.5106H14.5103H14.51H14.5097H14.5093H14.509H14.5087H14.5084H14.508H14.5077H14.5074H14.5071H14.5068H14.5064H14.5061H14.5058H14.5055H14.5051H14.5048H14.5045H14.5042H14.5038H14.5035H14.5032H14.5029H14.5025H14.5022H14.5019H14.5016H14.5012H14.5009H14.5006H14.5003H14.4999H14.4996H14.4993H14.499H14.4986H14.4983H14.498H14.4977H14.4973H14.497H14.4967H14.4964H14.496H14.4957H14.4954H14.4951H14.4947H14.4944H14.4941H14.4938H14.4935H14.4931H14.4928H14.4925H14.4922H14.4918H14.4915H14.4912H14.4909H14.4905H14.4902H14.4899H14.4896H14.4892H14.4889H14.4886H14.4883H14.4879H14.4876H14.4873H14.487H14.4866H14.4863H14.486H14.4857H14.4853H14.485H14.4847H14.4844H14.484H14.4837H14.4834H14.4831H14.4827H14.4824H14.4821H14.4818H14.4814H14.4811H14.4808H14.4805H14.4801H14.4798H14.4795H14.4792H14.4789H14.4785H14.4782H14.4779H14.4776H14.4772H14.4769H14.4766H14.4763H14.4759H14.4756H14.4753H14.475H14.4746H14.4743H14.474H14.4737H14.4733H14.473H14.4727H14.4724H14.472H14.4717H14.4714H14.4711H14.4707H14.4704H14.4701H14.4698H14.4694H14.4691H14.4688H14.4685H14.4681H14.4678H14.4675H14.4672H14.4668H14.4665H14.4662H14.4659H14.4656H14.4652H14.4649H14.4646H14.4643H14.4639H14.4636H14.4633H14.463H14.4626H14.4623H14.462H14.4617H14.4613H14.461H14.4607H14.4604H14.46H14.4597H14.4594H14.4591H14.4587H14.4584H14.4581H14.4578H14.4574H14.4571H14.4568H14.4565H14.4561H14.4558H14.4555H14.4552H14.4548H14.4545H14.4542H14.4539H14.4535H14.4532H14.4529H14.4526H14.4522H14.4519H14.4516H14.4513H14.451H14.4506H14.4503H14.45H14.4497H14.4493H14.449H14.4487H14.4484H14.448H14.4477H14.4474H14.4471H14.4467H14.4464H14.4461H14.4458H14.4454H14.4451H14.4448H14.4445H14.4441H14.4438H14.4435H14.4432H14.4428H14.4425H14.4422H14.4419H14.4415H14.4412H14.4409H14.4406H14.4402H14.4399H14.4396H14.4393H14.4389H14.4386H14.4383H14.438H14.4376H14.4373H14.437H14.4367H14.4364H14.436H14.4357H14.4354H14.4351H14.4347H14.4344H14.4341H14.4338H14.4334H14.4331H14.4328H14.4325H14.4321H14.4318H14.4315H14.4312H14.4308H14.4305H14.4302H14.4299H14.4295H14.4292H14.4289H14.4286H14.4282H14.4279H14.4276H14.4273H14.4269H14.4266H14.4263H14.426H14.4256H14.4253H14.425H14.4247H14.4243H14.424H14.4237H14.4234H14.4231H14.4227H14.4224H14.4221H14.4218H14.4214H14.4211H14.4208H14.4205H14.4201H14.4198H14.4195H14.4192H14.4188H14.4185H14.4182H14.4179H14.4175H14.4172H14.4169H14.4166H14.4162H14.4159H14.4156H14.4153H14.4149H14.4146H14.4143H14.414H14.4136H14.4133H14.413H14.4127H14.4123H14.412H14.4117H14.4114H14.411H14.4107H14.4104H14.4101H14.4097H14.4094H14.4091H14.4088H14.4085H14.4081H14.4078H14.4075H14.4072H14.4068H14.4065H14.4062H14.4059H14.4055H14.4052H14.4049H14.4046H14.4042H14.4039H14.4036H14.4033H14.4029H14.4026H14.4023H14.402H14.4016H14.4013H14.401H14.4007H14.4003H14.4H14.3997H14.3994H14.399H14.3987H14.3984H14.3981H14.3977H14.3974H14.3971H14.3968H14.3964H14.3961H14.3958H14.3955H14.3951H14.3948H14.3945H14.3942H14.3939H14.3935H14.3932H14.3929H14.3926H14.3922H14.3919H14.3916H14.3913H14.3909H14.3906H14.3903H14.39H14.3896H14.3893H14.389H14.3887H14.3883H14.388H14.3877H14.3874H14.387H14.3867H14.3864H14.3861H14.3857H14.3854H14.3851H14.3848H14.3844H14.3841H14.3838H14.3835H14.3831H14.3828H14.3825H14.3822H14.3818H14.3815H14.3812H14.3809H14.3806H14.3802H14.3799H14.3796H14.3793H14.3789H14.3786H14.3783H14.378H14.3776H14.3773H14.377H14.3767H14.3763H14.376H14.3757H14.3754H14.375H14.3747H14.3744H14.3741H14.3737H14.3734H14.3731H14.3728H14.3724H14.3721H14.3718H14.3715H14.3711H14.3708H14.3705H14.3702H14.3698H14.3695H14.3692H14.3689H14.3685H14.3682H14.3679H14.3676H14.3672H14.3669H14.3666H14.3663H14.366H14.3656H14.3653H14.365H14.3647H14.3643H14.364H14.3637C12.9974 1.51147 11.8578 2.60795 11.8578 3.93951V4.87873L11.766 4.92313C9.20399 5.95976 7.53905 8.35962 7.53905 11.0361V15.6991L6.38476 18.6766C6.28681 18.9292 6.319 19.2155 6.4838 19.4387C6.64459 19.6564 6.87492 19.784 7.16573 19.784H11.1531L11.1667 19.8893ZM12.021 19.923L12.0208 19.9223L11.9781 19.7572H16.7492L16.7071 19.9202C16.707 19.9205 16.707 19.9209 16.7069 19.9212C16.4168 20.9652 15.4691 21.7032 14.3637 21.7032C13.2556 21.7032 12.2832 20.963 12.021 19.923ZM7.47381 18.0761L7.47402 18.0762L7.47667 18.0691L8.19386 16.142H20.4788L21.2233 18.0968L21.2226 18.097L21.2291 18.1097C21.2565 18.1626 21.2856 18.2153 21.3129 18.2646C21.3274 18.291 21.3414 18.3163 21.3543 18.3402C21.393 18.4117 21.425 18.4757 21.4478 18.5374C21.4909 18.6541 21.5001 18.7591 21.4491 18.8812C21.4416 18.893 21.42 18.9136 21.3625 18.933C21.3029 18.9531 21.2234 18.9656 21.1308 18.972C21.0019 18.9809 20.8683 18.9775 20.7486 18.9744C20.693 18.973 20.6405 18.9717 20.5927 18.9717H8.13469V18.9715L8.12833 18.9718C8.09818 18.9734 8.06915 18.9749 8.04118 18.9763C7.81886 18.9879 7.66365 18.996 7.54306 18.9825C7.41789 18.9684 7.34917 18.9329 7.2922 18.8594C7.24512 18.7987 7.23476 18.7138 7.27258 18.5735C7.30483 18.4539 7.36457 18.3205 7.43399 18.1654C7.44696 18.1364 7.46028 18.1067 7.47381 18.0761ZM15.8603 4.59461L15.8603 4.5946L15.8587 4.59423C15.3782 4.48486 14.8705 4.43043 14.336 4.43043C13.8289 4.43043 13.3236 4.48492 12.8211 4.56592L12.8211 4.56555L12.8117 4.56783L12.6338 4.61084V3.93951C12.6338 3.04836 13.4044 2.29706 14.336 2.29706C15.2675 2.29706 16.0382 3.04836 16.0382 3.93951V4.63761L15.8603 4.59461ZM8.31506 11.0361C8.31506 7.84188 11.0236 5.21602 14.336 5.21602C17.6757 5.21602 20.3569 7.84152 20.3569 11.0361V15.3564H8.31506V11.0361Z" fill="black" stroke="black" stroke-width="0.25"/>
<path d="M5.41859 8.59448C4.70757 9.24596 4.25049 10.1981 4.25049 11.2004C4.25049 12.2027 4.70757 13.1548 5.41859 13.8063" stroke="black" stroke-miterlimit="10" stroke-linecap="round"/>
<path d="M4.25041 7.99292C3.38703 8.79474 2.82837 9.94736 2.82837 11.2002C2.82837 12.453 3.38703 13.6057 4.25041 14.4075" stroke="black" stroke-miterlimit="10" stroke-linecap="round"/>
<path d="M2.82834 7.09082C1.71102 8.0931 1 9.59651 1 11.2002C1 12.8038 1.71102 14.3072 2.82834 15.3095" stroke="black" stroke-miterlimit="10" stroke-linecap="round"/>
<path d="M23.3636 13.8564C24.0747 13.2049 24.5318 12.2527 24.5318 11.2504C24.5318 10.2482 24.0747 9.29601 23.3636 8.64453" stroke="black" stroke-miterlimit="10" stroke-linecap="round"/>
<path d="M24.5317 14.4075C25.3951 13.6057 25.9538 12.453 25.9538 11.2002C25.9538 9.94736 25.3951 8.79474 24.5317 7.99292" stroke="black" stroke-miterlimit="10" stroke-linecap="round"/>
<path d="M25.9537 15.3095C27.0711 14.3072 27.7821 12.8038 27.7821 11.2002C27.7821 9.59651 27.0711 8.0931 25.9537 7.09082" stroke="black" stroke-miterlimit="10" stroke-linecap="round"/>
</svg>
