<svg width="36" height="36" viewBox="0 0 36 36" fill="none" xmlns="http://www.w3.org/2000/svg">
<path fill-rule="evenodd" clip-rule="evenodd" d="M18.2307 0.92304C27.7894 0.92304 35.5384 8.67182 35.5384 18.2307C35.5384 27.7895 27.7894 35.5383 18.2307 35.5383C8.67193 35.5383 0.923004 27.7895 0.923004 18.2307C0.923004 8.67182 8.67193 0.92304 18.2307 0.92304Z" fill="#27AE60"/>
<path d="M26.0048 17.514L21.6978 15.021C21.3708 14.786 20.9717 14.644 20.5387 14.644C19.9157 14.644 19.3657 14.936 19.0007 15.384V12.828L19.5857 13.413C19.9478 13.775 20.4478 13.999 20.9998 13.999C22.1047 13.999 22.9998 13.104 22.9998 11.999C22.9998 10.894 22.1047 9.999 20.9998 9.999H19.0007V9C19.0007 7.9 18.1007 7 17.0007 7C15.9007 7 15.0007 7.9 15.0007 9V9.999H12.9997C11.8947 9.999 10.9998 10.894 10.9998 11.999C10.9998 13.104 11.8947 13.999 12.9997 13.999C13.5517 13.999 14.0517 13.775 14.4137 13.413L15.0007 12.826V20.499L14.2937 19.791C13.5138 19.011 12.4918 18.621 11.4688 18.621C10.7297 18.621 9.99075 18.827 9.34275 19.235C9.29675 19.262 9.25375 19.297 9.21375 19.337C8.92875 19.621 8.92875 20.082 9.21375 20.366L15.9478 27.101C15.9488 27.102 15.9508 27.104 15.9528 27.106L16.0638 27.217L16.0647 27.208C17.2257 28.316 18.7947 29 20.5267 29C24.1027 29 27.0008 26.102 27.0008 22.526V19.237C27.0008 18.501 26.5998 17.86 26.0048 17.514ZM19.0007 10.999H20.9998C21.5507 10.999 21.9998 11.448 21.9998 11.999C21.9998 12.55 21.5507 12.999 20.9998 12.999C20.7327 12.999 20.4817 12.895 20.2927 12.706L19.0007 11.414V10.999ZM16.0007 9C16.0007 8.449 16.4497 8 17.0007 8C17.5517 8 18.0007 8.449 18.0007 9V9.999H16.0007V9ZM13.7067 12.706C13.5177 12.895 13.2667 12.999 12.9997 12.999C12.4487 12.999 11.9997 12.55 11.9997 11.999C11.9997 11.448 12.4487 10.999 12.9997 10.999H15.0007V11.412L13.7067 12.706ZM20.5267 27.999C19.1198 27.999 17.7797 27.461 16.7548 26.484L10.1747 19.914C10.5768 19.722 11.0178 19.622 11.4688 19.622C12.2687 19.622 13.0208 19.933 13.5868 20.499L14.8937 21.806C15.0157 21.928 15.1977 21.967 15.3587 21.906C15.7337 21.764 16.0007 21.406 16.0007 20.981V11.826L16.9998 10.827L18.0007 11.828V16.787C18.0007 16.998 18.1337 17.187 18.3327 17.258C18.5317 17.329 18.7537 17.267 18.8877 17.103L19.7758 16.015C19.8898 15.876 20.1398 15.643 20.5398 15.643C20.7978 15.643 20.9957 15.747 21.1157 15.833L25.4998 18.382C25.8137 18.565 26.0008 18.884 26.0008 19.236V22.525C26.0008 25.544 23.5457 27.999 20.5267 27.999Z" fill="white"/>
</svg>
