<svg width="24" height="26" viewBox="0 0 24 26" fill="none" xmlns="http://www.w3.org/2000/svg">
<g clip-path="url(#clip0)">
<path d="M1.22513 14.6021C1.77442 14.6021 2.23921 14.0528 2.23921 13.412V13.0916H9.25329V13.412C9.25329 14.0528 9.71808 14.6021 10.2674 14.6021C10.6054 14.6021 10.9012 14.9226 10.9012 15.3345V15.838H0.591322V15.3345C0.591322 14.9226 0.887097 14.6021 1.22513 14.6021ZM1.22513 11.6726V10.8028C1.22513 10.3909 1.5209 10.0247 1.94344 10.0247H9.59132C9.97161 10.0247 10.3096 10.3451 10.3096 10.8028V11.6726C10.3096 12.0845 10.0139 12.4507 9.59132 12.4507H1.90118C1.5209 12.4507 1.22513 12.0845 1.22513 11.6726ZM10.2674 25.3592H1.22513C0.887097 25.3592 0.591322 25.0387 0.591322 24.6268V23.7571H10.9012V24.6268C10.9012 25.0387 10.6054 25.3592 10.2674 25.3592ZM10.9012 23.1162H0.591322V16.4789H10.9012V23.1162V23.1162ZM1.22513 26H10.2674C10.9434 26 11.4927 25.3592 11.4927 24.581V15.3345C11.4927 14.5564 10.9434 13.9155 10.2674 13.9155C10.0139 13.9155 9.84484 13.6866 9.84484 13.412V13.0458C10.4364 12.9085 10.8589 12.3592 10.8589 11.6726V10.8028C10.8589 10.0247 10.2674 9.38382 9.54907 9.38382H1.90118C1.18287 9.38382 0.591322 10.0247 0.591322 10.8028V11.6726C0.591322 12.3592 1.05611 12.9085 1.60541 13.0458V13.412C1.60541 13.6866 1.39414 13.9155 1.18287 13.9155C0.506815 13.9155 -0.0424805 14.5564 -0.0424805 15.3345V24.6268C-0.000226944 25.4049 0.549069 26 1.22513 26Z" fill="black"/>
<path d="M13.7324 5.21831C14.2817 5.21831 14.7465 4.66901 14.7465 4.02817V3.70775H21.7606V4.02817C21.7606 4.66901 22.2254 5.21831 22.7747 5.21831C23.1127 5.21831 23.4085 5.53873 23.4085 5.9507V8.05634H13.0986V5.9507C13.0986 5.58451 13.3944 5.21831 13.7324 5.21831ZM13.7324 2.28873V1.41901C13.7324 1.00704 14.0282 0.640845 14.4508 0.640845H22.0986C22.4789 0.640845 22.817 0.961268 22.817 1.41901V2.28873C22.817 2.7007 22.5212 3.0669 22.0986 3.0669H14.4085C14.0282 3.0669 13.7324 2.74648 13.7324 2.28873ZM22.7747 25.3592H13.7324C13.3944 25.3592 13.0986 25.0387 13.0986 24.6268V20.7817H23.4085V24.6268C23.4085 25.0387 23.1127 25.3592 22.7747 25.3592ZM23.4085 20.1408H13.0986V8.74296H23.4085V20.1408ZM13.7324 26H22.7747C23.4508 26 24.0001 25.3592 24.0001 24.581V5.99648C24.0001 5.21831 23.4508 4.57746 22.7747 4.57746C22.5212 4.57746 22.3522 4.34859 22.3522 4.07394V3.70775C22.9437 3.57042 23.3663 3.02113 23.3663 2.33451V1.41901C23.4085 0.640845 22.817 0 22.0986 0H14.4085C13.6902 0 13.0986 0.640845 13.0986 1.41901V2.28873C13.0986 2.97535 13.5634 3.52465 14.1127 3.66197V4.02817C14.1127 4.30282 13.9015 4.53169 13.6902 4.53169C13.0141 4.53169 12.4648 5.17254 12.4648 5.9507V24.581C12.5071 25.4049 13.0564 26 13.7324 26Z" fill="black"/>
<path d="M14.8311 12.3592C14.9578 12.2219 15.1691 12.1303 15.3804 12.1303C15.5916 12.1303 15.7606 12.2219 15.9297 12.3592L16.4367 12.9085L15.3804 14.0528L14.8733 13.5036C14.7466 13.3662 14.6621 13.1374 14.6621 12.9085C14.6198 12.7254 14.7043 12.4965 14.8311 12.3592ZM17.6198 14.5564C17.6198 14.7852 17.5353 14.9683 17.4085 15.1514C17.1128 15.4719 16.648 15.4719 16.3522 15.1514L15.8452 14.6021L16.9015 13.4578L17.4085 14.0071C17.5353 14.0986 17.6198 14.3275 17.6198 14.5564ZM14.4085 13.9613L15.8874 15.5634C16.1409 15.8381 16.479 15.9754 16.8592 15.9754C17.1973 15.9754 17.5353 15.8381 17.8311 15.5634C18.0846 15.2888 18.2113 14.9226 18.2113 14.5106C18.2113 14.0986 18.0846 13.7324 17.8311 13.4578L16.3522 11.9014C15.8029 11.3064 14.9578 11.3064 14.4508 11.9014C14.1973 12.1761 14.0705 12.5423 14.0705 12.9543C14.0283 13.3205 14.155 13.6866 14.4085 13.9613Z" fill="black"/>
<path d="M4.47871 18.4014C4.64772 18.2183 4.81674 18.1725 5.028 18.1725C5.23927 18.1725 5.40829 18.264 5.5773 18.4014L6.1266 18.9964L4.98575 20.1408L4.43645 19.5457C4.30969 19.4084 4.22519 19.2253 4.22519 18.9964C4.22519 18.7676 4.30969 18.5845 4.47871 18.4014ZM7.26744 20.5985C7.26744 20.8274 7.18293 21.0105 7.05617 21.1936C6.7604 21.514 6.29561 21.514 5.95758 21.1936L5.40829 20.5985L6.50688 19.4542L7.05617 20.0492C7.18293 20.1866 7.26744 20.3697 7.26744 20.5985ZM4.05617 20.0492L5.53505 21.6514C5.78857 21.926 6.16885 22.0633 6.50688 22.0633C6.84491 22.0633 7.22519 21.926 7.47871 21.6514C7.73223 21.3767 7.85899 21.0105 7.85899 20.5985C7.85899 20.1866 7.73223 19.8204 7.47871 19.5457L5.99984 17.9436C5.45054 17.3485 4.60547 17.3485 4.05617 17.9436C3.80265 18.2183 3.67589 18.5845 3.67589 18.9964C3.63364 19.4084 3.7604 19.7746 4.05617 20.0492Z" fill="black"/>
<path d="M20.9998 18.2183C20.4928 18.3556 19.9435 18.081 19.7322 17.6232L21.8872 17.0282C21.8872 17.257 21.8449 17.4401 21.7182 17.669C21.5491 17.9436 21.2956 18.1267 20.9998 18.2183ZM20.4506 15.7922C20.5351 15.7465 20.6196 15.7465 20.7463 15.7465C21.1689 15.7465 21.5491 15.9753 21.7604 16.3873L19.6055 16.9824C19.6055 16.7535 19.6477 16.5704 19.7745 16.3415C19.9013 16.0669 20.1548 15.8838 20.4506 15.7922ZM20.2815 15.1514C19.8168 15.2887 19.4365 15.5634 19.1829 16.0211C18.9294 16.4789 18.8872 16.9824 18.9717 17.4401C19.1829 18.3098 19.9013 18.8591 20.6618 18.8591C20.7886 18.8591 20.9576 18.8591 21.0844 18.8134C21.5491 18.676 21.9294 18.4014 22.1829 17.9436C22.4365 17.5317 22.4787 16.9824 22.3942 16.5246C22.1829 15.5176 21.2534 14.9225 20.2815 15.1514Z" fill="black"/>
<path d="M19.2252 11.5809C19.2674 11.3521 19.3519 11.169 19.4787 10.9859L20.7885 12.9084C20.3238 13.0915 19.7745 12.9542 19.4364 12.4964C19.2674 12.2218 19.1829 11.9014 19.2252 11.5809ZM20.366 10.4823C20.704 10.4823 21.0843 10.6654 21.2956 10.9859C21.4646 11.2605 21.5491 11.5809 21.5069 11.9014C21.4646 12.1302 21.3801 12.3133 21.2533 12.4964L19.9435 10.5739C20.1125 10.5281 20.2392 10.4823 20.366 10.4823ZM20.366 13.6408C20.7463 13.6408 21.0843 13.5035 21.4223 13.2746C21.8026 12.9542 22.0561 12.5422 22.0984 12.0387C22.1407 11.5352 22.0561 11.0316 21.7604 10.6197C21.1688 9.79572 20.0702 9.61262 19.3097 10.2077C18.9716 10.5281 18.7181 10.9859 18.6336 11.4436C18.5491 11.9471 18.6759 12.4506 18.9716 12.8626C19.3097 13.3661 19.859 13.6408 20.366 13.6408Z" fill="black"/>
<path d="M4.47911 18.4014C4.64812 18.2183 4.81713 18.1725 5.0284 18.1725C5.23967 18.1725 5.40868 18.2641 5.5777 18.4014L6.12699 18.9965L4.98615 20.1409L4.43685 19.5458C4.31009 19.4085 4.22559 19.2254 4.22559 18.9965C4.22559 18.7676 4.31009 18.5845 4.47911 18.4014Z" fill="#FF7401"/>
<path d="M14.8309 12.3591C14.9576 12.2218 15.1689 12.1302 15.3802 12.1302C15.5914 12.1302 15.7605 12.2218 15.9295 12.3591L16.4365 12.9084L15.3802 14.0528L14.8731 13.5035C14.7464 13.3662 14.6619 13.1373 14.6619 12.9084C14.6196 12.7253 14.7041 12.4964 14.8309 12.3591Z" fill="#FF7401"/>
<path d="M21 18.2182C20.493 18.3556 19.9437 18.0809 19.7324 17.6232L21.8874 17.0281C21.8874 17.257 21.8451 17.4401 21.7183 17.669C21.5493 17.9436 21.2958 18.1267 21 18.2182Z" fill="#F8CC61"/>
<path d="M20.4505 15.7923C20.535 15.7466 20.6196 15.7466 20.7463 15.7466C21.1688 15.7466 21.5491 15.9754 21.7604 16.3874L19.6055 16.9825C19.6055 16.7536 19.6477 16.5705 19.7745 16.3416C19.9012 16.067 20.1548 15.8839 20.4505 15.7923Z" fill="#F8CC61"/>
<path d="M19.2256 11.581C19.2679 11.3521 19.3524 11.169 19.4791 10.9859L20.789 12.9085C20.3242 13.0916 19.7749 12.9542 19.4369 12.4965C19.2679 12.2218 19.1834 11.9014 19.2256 11.581Z" fill="#F8CC61"/>
<path d="M20.3664 10.4824C20.7044 10.4824 21.0847 10.6655 21.296 10.9859C21.465 11.2605 21.5495 11.581 21.5072 11.9014C21.465 12.1302 21.3805 12.3133 21.2537 12.4964L19.9438 10.5739C20.1129 10.5281 20.2396 10.4824 20.3664 10.4824Z" fill="#F8CC61"/>
</g>
<defs>
<clipPath id="clip0">
<rect width="24" height="26" fill="white"/>
</clipPath>
</defs>
</svg>
